<svg width="25" height="24" viewBox="0 0 25 24" fill="none" xmlns="http://www.w3.org/2000/svg">
<rect opacity="0.3" x="1.16699" y="0.5" width="23" height="23" stroke="#2D383F"/>
<path d="M19.5927 15.2259C19.5758 15.1893 19.56 15.1589 19.5453 15.1346C19.3024 14.6964 18.8382 14.1587 18.1531 13.5211L18.1386 13.5065L18.1313 13.4993L18.124 13.492H18.1167C17.8057 13.1951 17.6088 12.9954 17.5263 12.8932C17.3754 12.6985 17.3416 12.5015 17.4241 12.3018C17.4823 12.1509 17.7012 11.8323 18.0801 11.3455C18.2794 11.0876 18.4373 10.8808 18.5539 10.725C19.3946 9.60555 19.7591 8.8902 19.6473 8.57868L19.6039 8.50588C19.5747 8.46205 19.4994 8.42196 19.378 8.38539C19.2564 8.3489 19.1009 8.34287 18.9114 8.36718L16.8121 8.38171C16.7781 8.36964 16.7296 8.37076 16.6663 8.38539C16.6031 8.40002 16.5715 8.40736 16.5715 8.40736L16.535 8.42564L16.506 8.4476C16.4817 8.46213 16.4549 8.48767 16.4258 8.52419C16.3967 8.56057 16.3725 8.60328 16.3531 8.65194C16.1245 9.24084 15.8646 9.78838 15.573 10.2945C15.3932 10.5963 15.2281 10.8579 15.0773 11.0793C14.9266 11.3007 14.8003 11.4639 14.6983 11.5684C14.5962 11.6731 14.504 11.7569 14.4213 11.8202C14.3386 11.8836 14.2755 11.9104 14.2319 11.9006C14.1881 11.8908 14.1468 11.8811 14.1078 11.8714C14.0398 11.8275 13.9851 11.7679 13.9439 11.6925C13.9025 11.6171 13.8746 11.5221 13.86 11.4077C13.8455 11.2933 13.8369 11.1949 13.8345 11.1121C13.8322 11.0294 13.8333 10.9125 13.8382 10.7616C13.8433 10.6107 13.8455 10.5085 13.8455 10.455C13.8455 10.27 13.8491 10.0693 13.8564 9.85269C13.8637 9.63611 13.8697 9.46451 13.8746 9.33809C13.8796 9.21154 13.8819 9.07766 13.8819 8.93651C13.8819 8.79536 13.8733 8.68467 13.8564 8.60432C13.8396 8.52408 13.8139 8.4462 13.78 8.37069C13.7459 8.29526 13.696 8.2369 13.6306 8.19548C13.565 8.15411 13.4834 8.12128 13.3864 8.09688C13.1288 8.0385 12.8008 8.00692 12.4023 8.00202C11.4985 7.9923 10.9177 8.05075 10.6602 8.1773C10.5581 8.23077 10.4658 8.30382 10.3832 8.39623C10.2957 8.50335 10.2835 8.5618 10.3467 8.57141C10.6383 8.61517 10.8447 8.71982 10.9662 8.88529L11.01 8.97297C11.0441 9.03623 11.0781 9.14823 11.1121 9.30881C11.1461 9.46939 11.168 9.64703 11.1777 9.84162C11.2019 10.197 11.2019 10.5012 11.1777 10.7542C11.1533 11.0073 11.1304 11.2044 11.1084 11.3456C11.0865 11.4867 11.0537 11.6011 11.01 11.6887C10.9662 11.7763 10.9371 11.8298 10.9225 11.8492C10.9079 11.8687 10.8958 11.8809 10.8861 11.8857C10.8229 11.91 10.7573 11.9223 10.6893 11.9223C10.6212 11.9223 10.5386 11.8882 10.4414 11.82C10.3443 11.7519 10.2435 11.6582 10.139 11.539C10.0345 11.4197 9.91663 11.253 9.78538 11.0389C9.65423 10.8247 9.51815 10.5717 9.37722 10.2797L9.26062 10.0679C9.18773 9.93165 9.08816 9.73328 8.96181 9.47295C8.83538 9.21251 8.72363 8.96059 8.62649 8.71724C8.58765 8.61504 8.52932 8.53723 8.45158 8.48368L8.41509 8.46172C8.39084 8.44228 8.3519 8.42165 8.29849 8.39966C8.24501 8.37769 8.1892 8.36194 8.13083 8.35225L6.13359 8.36678C5.9295 8.36678 5.79102 8.41308 5.7181 8.50557L5.68892 8.54932C5.67435 8.57369 5.66699 8.61261 5.66699 8.66618C5.66699 8.71972 5.68157 8.78544 5.71075 8.86325C6.00231 9.54956 6.31938 10.2114 6.66195 10.849C7.00452 11.4866 7.30221 12.0002 7.55483 12.3893C7.80751 12.7787 8.06507 13.1462 8.3275 13.4917C8.58993 13.8373 8.76364 14.0587 8.84863 14.156C8.93372 14.2535 9.00056 14.3264 9.04915 14.375L9.23141 14.5502C9.34804 14.667 9.5193 14.807 9.74527 14.97C9.97129 15.1331 10.2215 15.2937 10.4961 15.452C10.7707 15.61 11.0901 15.739 11.4547 15.8387C11.8191 15.9386 12.1738 15.9787 12.5189 15.9593H13.3571C13.5272 15.9446 13.656 15.8911 13.7435 15.7987L13.7725 15.7621C13.792 15.733 13.8103 15.6879 13.8271 15.6272C13.8442 15.5663 13.8526 15.4993 13.8526 15.4264C13.8477 15.2172 13.8636 15.0286 13.8999 14.8607C13.9363 14.6929 13.9777 14.5663 14.024 14.4811C14.0703 14.3959 14.1225 14.3241 14.1806 14.2658C14.2389 14.2075 14.2804 14.1721 14.3048 14.1599C14.329 14.1477 14.3483 14.1394 14.3629 14.1344C14.4795 14.0955 14.6168 14.1332 14.7748 14.2476C14.9328 14.362 15.081 14.5032 15.2195 14.6711C15.358 14.8391 15.5244 15.0276 15.7188 15.2368C15.9133 15.4461 16.0833 15.6017 16.229 15.7041L16.3748 15.7917C16.4721 15.8501 16.5984 15.9037 16.754 15.9523C16.9092 16.001 17.0452 16.0131 17.162 15.9888L19.028 15.9597C19.2126 15.9597 19.3562 15.9291 19.458 15.8683C19.5601 15.8075 19.6208 15.7405 19.6403 15.6676C19.6598 15.5946 19.6609 15.5118 19.644 15.4192C19.6267 15.3269 19.6097 15.2623 19.5927 15.2259Z" fill="#2D383F"/>
</svg>
